<?xml version="1.0" encoding="UTF-8"?>
<!DOCTYPE svg PUBLIC "-//W3C//DTD SVG 1.1//EN" "http://www.w3.org/Graphics/SVG/1.1/DTD/svg11.dtd">
<svg version="1.1" xmlns="http://www.w3.org/2000/svg" xmlns:xlink="http://www.w3.org/1999/xlink" x="0" y="0" width="79.188" height="79.188" viewBox="0, 0, 79.188, 79.188">
  <defs>
    <clipPath id="Clip_1">
      <path d="M70,7 L79.188,7 L79.188,16 L70,16 z M70,7"/>
    </clipPath>
    <clipPath id="Clip_2">
      <path d="M39,35 L79.188,35 L79.188,43 L39,43 z M39,35"/>
    </clipPath>
    <clipPath id="Clip_3">
      <path d="M39,48 L79.188,48 L79.188,57 L39,57 z M39,48"/>
    </clipPath>
  </defs>
  <g id="surface1">
    <g>
      <path d="M-31,-20 L105,-20 L105,105 L-31,105 L-31,-20 z" fill="#C9C9C9"/>
      <path d="M-31,-20 L105,-20 L105,105 L-31,105 L-31,-20 z" fill-opacity="0" stroke="#000000" stroke-width="1"/>
    </g>
    <path d="M7.525,38.27 L6.603,36.098 C6.572,36.02 6.541,35.973 6.541,35.958 C6.541,35.895 6.728,35.692 7.197,35.645 C7.306,35.63 7.416,35.63 7.416,35.442 C7.416,35.301 7.275,35.301 7.244,35.301 C6.791,35.301 6.322,35.333 5.869,35.333 C5.603,35.333 4.916,35.301 4.65,35.301 C4.587,35.301 4.447,35.301 4.447,35.52 C4.447,35.645 4.556,35.645 4.697,35.645 C5.353,35.645 5.431,35.755 5.525,35.989 L6.806,39.036 L4.509,41.505 L4.369,41.63 C3.837,42.208 3.322,42.38 2.759,42.411 C2.619,42.426 2.525,42.426 2.525,42.63 C2.525,42.645 2.525,42.755 2.666,42.755 C2.994,42.755 3.353,42.723 3.697,42.723 C4.087,42.723 4.525,42.755 4.916,42.755 C4.978,42.755 5.103,42.755 5.103,42.536 C5.103,42.426 4.994,42.411 4.978,42.411 C4.884,42.411 4.541,42.38 4.541,42.083 C4.541,41.911 4.697,41.723 4.837,41.583 L5.947,40.411 L6.931,39.348 L8.025,41.942 C8.072,42.067 8.087,42.083 8.087,42.098 C8.087,42.192 7.884,42.38 7.447,42.411 C7.337,42.426 7.228,42.442 7.228,42.63 C7.228,42.755 7.353,42.755 7.4,42.755 C7.697,42.755 8.462,42.723 8.775,42.723 C9.041,42.723 9.712,42.755 9.978,42.755 C10.056,42.755 10.197,42.755 10.197,42.551 C10.197,42.411 10.087,42.411 9.994,42.411 C9.259,42.411 9.244,42.38 9.056,41.942 C8.634,40.926 7.9,39.223 7.65,38.567 C8.384,37.801 9.541,36.505 9.884,36.208 C10.197,35.942 10.619,35.676 11.275,35.645 C11.416,35.63 11.509,35.63 11.509,35.426 C11.509,35.411 11.509,35.301 11.369,35.301 C11.041,35.301 10.681,35.333 10.337,35.333 C9.931,35.333 9.525,35.301 9.134,35.301 C9.072,35.301 8.931,35.301 8.931,35.52 C8.931,35.598 8.978,35.63 9.056,35.645 C9.15,35.661 9.494,35.676 9.494,35.989 C9.494,36.13 9.369,36.27 9.291,36.38 z M7.525,38.27" fill="#000000"/>
    <path d="M22.652,39.192 C22.808,39.192 23.011,39.192 23.011,38.973 C23.011,38.755 22.808,38.755 22.652,38.755 L16.121,38.755 C15.965,38.755 15.761,38.755 15.761,38.973 C15.761,39.192 15.965,39.192 16.136,39.192 z M22.652,41.301 C22.808,41.301 23.011,41.301 23.011,41.083 C23.011,40.864 22.808,40.864 22.652,40.864 L16.136,40.864 C15.965,40.864 15.761,40.864 15.761,41.083 C15.761,41.301 15.965,41.301 16.121,41.301 z M22.652,41.301" fill="#000000"/>
    <path d="M30.231,26.923 L30.981,26.923 L30.981,8.064 L33.856,8.064 L33.856,7.314 L30.231,7.314 z M30.231,26.923" fill="#000000"/>
    <path d="M30.231,33.482 L30.981,33.482 L30.981,26.92 L30.231,26.92 z M30.231,33.482" fill="#000000"/>
    <path d="M30.231,40.028 L30.981,40.028 L30.981,33.466 L30.231,33.466 z M30.231,40.028" fill="#000000"/>
    <path d="M30.231,46.573 L30.981,46.573 L30.981,40.011 L30.231,40.011 z M30.231,46.573" fill="#000000"/>
    <path d="M30.231,53.119 L30.981,53.119 L30.981,46.557 L30.231,46.557 z M30.231,53.119" fill="#000000"/>
    <path d="M30.231,72.742 L33.856,72.742 L33.856,71.992 L30.981,71.992 L30.981,53.117 L30.231,53.117 z M30.231,72.742" fill="#000000"/>
    <g>
      <path d="M42.125,8.654 C42.125,8.404 42.125,8.373 41.875,8.373 C41.203,9.076 40.235,9.076 39.891,9.076 L39.891,9.404 C40.11,9.404 40.75,9.404 41.328,9.123 L41.328,14.779 C41.328,15.17 41.281,15.295 40.313,15.295 L39.953,15.295 L39.953,15.639 C40.344,15.607 41.281,15.607 41.719,15.607 C42.156,15.607 43.11,15.607 43.485,15.639 L43.485,15.295 L43.141,15.295 C42.156,15.295 42.125,15.185 42.125,14.779 z M42.125,8.654" fill="#000000"/>
      <path d="M57.052,12.92 C57.052,11.545 58.114,10.779 58.489,10.498 C58.786,10.279 59.021,9.873 59.021,9.42 C59.021,8.795 58.583,7.951 56.958,7.951 C55.771,7.951 55.099,8.685 55.099,9.404 C55.099,9.764 55.349,9.92 55.599,9.92 C55.911,9.92 56.099,9.701 56.099,9.42 C56.099,8.935 55.646,8.935 55.489,8.935 C55.833,8.357 56.458,8.185 56.927,8.185 C58.114,8.185 58.114,8.935 58.114,9.357 C58.114,9.998 57.943,10.201 57.739,10.389 C57.021,11.185 56.786,12.185 56.786,12.842 L56.786,13.342 C56.786,13.529 56.786,13.592 56.911,13.592 C57.052,13.592 57.052,13.498 57.052,13.31 z M57.489,15.06 C57.489,14.748 57.224,14.482 56.911,14.482 C56.599,14.482 56.333,14.748 56.333,15.06 C56.333,15.373 56.599,15.639 56.911,15.639 C57.224,15.639 57.489,15.373 57.489,15.06 z M57.489,15.06" fill="#000000"/>
    </g>
    <g clip-path="url(#Clip_1)">
      <g>
        <path d="M72.466,12.92 C72.466,11.545 73.529,10.779 73.904,10.498 C74.201,10.279 74.435,9.873 74.435,9.42 C74.435,8.795 73.998,7.951 72.373,7.951 C71.185,7.951 70.513,8.685 70.513,9.404 C70.513,9.764 70.763,9.92 71.013,9.92 C71.326,9.92 71.513,9.701 71.513,9.42 C71.513,8.935 71.06,8.935 70.904,8.935 C71.248,8.357 71.873,8.185 72.341,8.185 C73.529,8.185 73.529,8.935 73.529,9.357 C73.529,9.998 73.357,10.201 73.154,10.389 C72.435,11.185 72.201,12.185 72.201,12.842 L72.201,13.342 C72.201,13.529 72.201,13.592 72.326,13.592 C72.466,13.592 72.466,13.498 72.466,13.31 z M72.904,15.06 C72.904,14.748 72.638,14.482 72.326,14.482 C72.013,14.482 71.748,14.748 71.748,15.06 C71.748,15.373 72.013,15.639 72.326,15.639 C72.638,15.639 72.904,15.373 72.904,15.06 z M72.904,15.06" fill="#000000"/>
        <path d="M88.322,11.795 C89.228,11.498 89.853,10.748 89.853,9.873 C89.853,8.982 88.9,8.373 87.853,8.373 C86.744,8.373 85.916,9.029 85.916,9.857 C85.916,10.217 86.166,10.42 86.478,10.42 C86.806,10.42 87.025,10.185 87.025,9.873 C87.025,9.326 86.525,9.326 86.353,9.326 C86.697,8.795 87.416,8.654 87.806,8.654 C88.26,8.654 88.853,8.889 88.853,9.873 C88.853,9.998 88.838,10.639 88.541,11.107 C88.213,11.639 87.853,11.67 87.572,11.685 C87.494,11.685 87.228,11.717 87.15,11.717 C87.056,11.717 86.994,11.732 86.994,11.842 C86.994,11.967 87.056,11.967 87.244,11.967 L87.728,11.967 C88.619,11.967 89.025,12.701 89.025,13.779 C89.025,15.264 88.275,15.576 87.791,15.576 C87.322,15.576 86.51,15.389 86.119,14.748 C86.51,14.795 86.838,14.56 86.838,14.139 C86.838,13.748 86.556,13.529 86.228,13.529 C85.978,13.529 85.619,13.685 85.619,14.17 C85.619,15.154 86.635,15.873 87.822,15.873 C89.15,15.873 90.15,14.889 90.15,13.779 C90.15,12.873 89.463,12.029 88.322,11.795 z M88.322,11.795" fill="#000000"/>
      </g>
    </g>
    <g>
      <path d="M41.636,26.469 C41.636,25.094 42.698,24.328 43.073,24.047 C43.37,23.828 43.604,23.422 43.604,22.969 C43.604,22.344 43.167,21.5 41.542,21.5 C40.354,21.5 39.682,22.234 39.682,22.953 C39.682,23.313 39.932,23.469 40.182,23.469 C40.495,23.469 40.682,23.25 40.682,22.969 C40.682,22.484 40.229,22.484 40.073,22.484 C40.417,21.906 41.042,21.734 41.511,21.734 C42.698,21.734 42.698,22.484 42.698,22.906 C42.698,23.547 42.526,23.75 42.323,23.938 C41.604,24.734 41.37,25.734 41.37,26.391 L41.37,26.891 C41.37,27.078 41.37,27.141 41.495,27.141 C41.636,27.141 41.636,27.047 41.636,26.859 z M42.073,28.609 C42.073,28.297 41.807,28.031 41.495,28.031 C41.182,28.031 40.917,28.297 40.917,28.609 C40.917,28.922 41.182,29.188 41.495,29.188 C41.807,29.188 42.073,28.922 42.073,28.609 z M42.073,28.609" fill="#000000"/>
      <path d="M55.728,28.344 L56.884,27.219 C58.587,25.719 59.228,25.125 59.228,24.047 C59.228,22.797 58.259,21.922 56.915,21.922 C55.696,21.922 54.884,22.922 54.884,23.891 C54.884,24.516 55.431,24.516 55.462,24.516 C55.65,24.516 56.025,24.375 56.025,23.938 C56.025,23.641 55.837,23.359 55.446,23.359 C55.368,23.359 55.337,23.359 55.306,23.375 C55.556,22.672 56.15,22.266 56.775,22.266 C57.775,22.266 58.243,23.141 58.243,24.047 C58.243,24.906 57.696,25.781 57.103,26.453 L55.009,28.781 C54.884,28.906 54.884,28.922 54.884,29.188 L58.931,29.188 L59.228,27.297 L58.962,27.297 C58.9,27.609 58.837,28.094 58.728,28.266 C58.65,28.344 57.931,28.344 57.681,28.344 z M55.728,28.344" fill="#000000"/>
    </g>
    <path d="M74.644,27 C74.644,25.703 73.754,24.609 72.582,24.609 C72.051,24.609 71.582,24.781 71.191,25.156 L71.191,23.031 C71.41,23.109 71.769,23.172 72.113,23.172 C73.457,23.172 74.223,22.188 74.223,22.047 C74.223,21.984 74.191,21.922 74.113,21.922 C74.113,21.922 74.082,21.922 74.035,21.953 C73.816,22.063 73.269,22.266 72.551,22.266 C72.113,22.266 71.613,22.203 71.098,21.969 C71.004,21.938 70.988,21.938 70.957,21.938 C70.848,21.938 70.848,22.016 70.848,22.203 L70.848,25.422 C70.848,25.625 70.848,25.703 71.004,25.703 C71.082,25.703 71.113,25.672 71.144,25.609 C71.269,25.438 71.676,24.844 72.551,24.844 C73.129,24.844 73.394,25.344 73.488,25.547 C73.66,25.953 73.676,26.375 73.676,26.922 C73.676,27.297 73.676,27.953 73.426,28.406 C73.16,28.844 72.754,29.125 72.254,29.125 C71.457,29.125 70.832,28.547 70.644,27.906 C70.676,27.906 70.707,27.922 70.832,27.922 C71.191,27.922 71.379,27.656 71.379,27.391 C71.379,27.125 71.191,26.859 70.832,26.859 C70.676,26.859 70.301,26.938 70.301,27.438 C70.301,28.375 71.051,29.422 72.269,29.422 C73.535,29.422 74.644,28.375 74.644,27 z M74.644,27" fill="#000000"/>
    <g clip-path="url(#Clip_2)">
      <g>
        <path d="M41.636,40.018 C41.636,38.643 42.698,37.877 43.073,37.596 C43.37,37.377 43.604,36.971 43.604,36.518 C43.604,35.893 43.167,35.049 41.542,35.049 C40.354,35.049 39.682,35.783 39.682,36.502 C39.682,36.862 39.932,37.018 40.182,37.018 C40.495,37.018 40.682,36.799 40.682,36.518 C40.682,36.033 40.229,36.033 40.073,36.033 C40.417,35.455 41.042,35.283 41.511,35.283 C42.698,35.283 42.698,36.033 42.698,36.455 C42.698,37.096 42.526,37.299 42.323,37.487 C41.604,38.283 41.37,39.283 41.37,39.94 L41.37,40.44 C41.37,40.627 41.37,40.69 41.495,40.69 C41.636,40.69 41.636,40.596 41.636,40.408 z M42.073,42.158 C42.073,41.846 41.807,41.58 41.495,41.58 C41.182,41.58 40.917,41.846 40.917,42.158 C40.917,42.471 41.182,42.737 41.495,42.737 C41.807,42.737 42.073,42.471 42.073,42.158 z M42.073,42.158" fill="#000000"/>
        <path d="M57.493,38.893 C58.4,38.596 59.025,37.846 59.025,36.971 C59.025,36.08 58.071,35.471 57.025,35.471 C55.915,35.471 55.087,36.127 55.087,36.955 C55.087,37.315 55.337,37.518 55.65,37.518 C55.978,37.518 56.196,37.283 56.196,36.971 C56.196,36.424 55.696,36.424 55.525,36.424 C55.868,35.893 56.587,35.752 56.978,35.752 C57.431,35.752 58.025,35.987 58.025,36.971 C58.025,37.096 58.009,37.737 57.712,38.205 C57.384,38.737 57.025,38.768 56.743,38.783 C56.665,38.783 56.4,38.815 56.321,38.815 C56.228,38.815 56.165,38.83 56.165,38.94 C56.165,39.065 56.228,39.065 56.415,39.065 L56.9,39.065 C57.79,39.065 58.196,39.799 58.196,40.877 C58.196,42.362 57.446,42.674 56.962,42.674 C56.493,42.674 55.681,42.487 55.29,41.846 C55.681,41.893 56.009,41.658 56.009,41.237 C56.009,40.846 55.728,40.627 55.4,40.627 C55.15,40.627 54.79,40.783 54.79,41.268 C54.79,42.252 55.806,42.971 56.993,42.971 C58.321,42.971 59.321,41.987 59.321,40.877 C59.321,39.971 58.634,39.127 57.493,38.893 z M57.493,38.893" fill="#000000"/>
        <path d="M72.469,40.018 C72.469,38.643 73.532,37.877 73.907,37.596 C74.203,37.377 74.438,36.971 74.438,36.518 C74.438,35.893 74,35.049 72.375,35.049 C71.188,35.049 70.516,35.783 70.516,36.502 C70.516,36.862 70.766,37.018 71.016,37.018 C71.328,37.018 71.516,36.799 71.516,36.518 C71.516,36.033 71.063,36.033 70.907,36.033 C71.25,35.455 71.875,35.283 72.344,35.283 C73.532,35.283 73.532,36.033 73.532,36.455 C73.532,37.096 73.36,37.299 73.157,37.487 C72.438,38.283 72.203,39.283 72.203,39.94 L72.203,40.44 C72.203,40.627 72.203,40.69 72.328,40.69 C72.469,40.69 72.469,40.596 72.469,40.408 z M72.907,42.158 C72.907,41.846 72.641,41.58 72.328,41.58 C72.016,41.58 71.75,41.846 71.75,42.158 C71.75,42.471 72.016,42.737 72.328,42.737 C72.641,42.737 72.907,42.471 72.907,42.158 z M72.907,42.158" fill="#000000"/>
        <path d="M90.061,40.549 C90.061,39.252 89.171,38.158 87.999,38.158 C87.467,38.158 86.999,38.33 86.608,38.705 L86.608,36.58 C86.827,36.658 87.186,36.721 87.53,36.721 C88.874,36.721 89.639,35.737 89.639,35.596 C89.639,35.533 89.608,35.471 89.53,35.471 C89.53,35.471 89.499,35.471 89.452,35.502 C89.233,35.612 88.686,35.815 87.967,35.815 C87.53,35.815 87.03,35.752 86.514,35.518 C86.421,35.487 86.405,35.487 86.374,35.487 C86.264,35.487 86.264,35.565 86.264,35.752 L86.264,38.971 C86.264,39.174 86.264,39.252 86.421,39.252 C86.499,39.252 86.53,39.221 86.561,39.158 C86.686,38.987 87.092,38.393 87.967,38.393 C88.546,38.393 88.811,38.893 88.905,39.096 C89.077,39.502 89.092,39.924 89.092,40.471 C89.092,40.846 89.092,41.502 88.842,41.955 C88.577,42.393 88.171,42.674 87.671,42.674 C86.874,42.674 86.249,42.096 86.061,41.455 C86.092,41.455 86.124,41.471 86.249,41.471 C86.608,41.471 86.796,41.205 86.796,40.94 C86.796,40.674 86.608,40.408 86.249,40.408 C86.092,40.408 85.717,40.487 85.717,40.987 C85.717,41.924 86.467,42.971 87.686,42.971 C88.952,42.971 90.061,41.924 90.061,40.549 z M90.061,40.549" fill="#000000"/>
      </g>
    </g>
    <g clip-path="url(#Clip_3)">
      <g>
        <path d="M42.125,54.489 L42.125,55.442 C42.125,55.832 42.11,55.942 41.297,55.942 L41.078,55.942 L41.078,56.286 C41.516,56.254 42.078,56.254 42.547,56.254 C43,56.254 43.578,56.254 44.031,56.286 L44.031,55.942 L43.797,55.942 C42.985,55.942 42.969,55.832 42.969,55.442 L42.969,54.489 L44.063,54.489 L44.063,54.145 L42.969,54.145 L42.969,49.192 C42.969,48.973 42.969,48.895 42.797,48.895 C42.703,48.895 42.656,48.895 42.578,49.036 L39.235,54.145 L39.235,54.489 z M42.188,54.145 L39.531,54.145 L42.188,50.082 z M42.188,54.145" fill="#000000"/>
        <path d="M57.052,53.567 C57.052,52.192 58.114,51.426 58.489,51.145 C58.786,50.926 59.021,50.52 59.021,50.067 C59.021,49.442 58.583,48.598 56.958,48.598 C55.771,48.598 55.099,49.332 55.099,50.051 C55.099,50.411 55.349,50.567 55.599,50.567 C55.911,50.567 56.099,50.348 56.099,50.067 C56.099,49.582 55.646,49.582 55.489,49.582 C55.833,49.004 56.458,48.832 56.927,48.832 C58.114,48.832 58.114,49.582 58.114,50.004 C58.114,50.645 57.943,50.848 57.739,51.036 C57.021,51.832 56.786,52.832 56.786,53.489 L56.786,53.989 C56.786,54.176 56.786,54.239 56.911,54.239 C57.052,54.239 57.052,54.145 57.052,53.957 z M57.489,55.707 C57.489,55.395 57.224,55.129 56.911,55.129 C56.599,55.129 56.333,55.395 56.333,55.707 C56.333,56.02 56.599,56.286 56.911,56.286 C57.224,56.286 57.489,56.02 57.489,55.707 z M57.489,55.707" fill="#000000"/>
        <path d="M72.954,54.489 L72.954,55.442 C72.954,55.832 72.939,55.942 72.126,55.942 L71.907,55.942 L71.907,56.286 C72.345,56.254 72.907,56.254 73.376,56.254 C73.829,56.254 74.407,56.254 74.861,56.286 L74.861,55.942 L74.626,55.942 C73.814,55.942 73.798,55.832 73.798,55.442 L73.798,54.489 L74.892,54.489 L74.892,54.145 L73.798,54.145 L73.798,49.192 C73.798,48.973 73.798,48.895 73.626,48.895 C73.532,48.895 73.486,48.895 73.407,49.036 L70.064,54.145 L70.064,54.489 z M73.017,54.145 L70.361,54.145 L73.017,50.082 z M73.017,54.145" fill="#000000"/>
        <path d="M87.881,53.567 C87.881,52.192 88.943,51.426 89.318,51.145 C89.615,50.926 89.85,50.52 89.85,50.067 C89.85,49.442 89.412,48.598 87.787,48.598 C86.6,48.598 85.928,49.332 85.928,50.051 C85.928,50.411 86.178,50.567 86.428,50.567 C86.74,50.567 86.928,50.348 86.928,50.067 C86.928,49.582 86.475,49.582 86.318,49.582 C86.662,49.004 87.287,48.832 87.756,48.832 C88.943,48.832 88.943,49.582 88.943,50.004 C88.943,50.645 88.772,50.848 88.568,51.036 C87.85,51.832 87.615,52.832 87.615,53.489 L87.615,53.989 C87.615,54.176 87.615,54.239 87.74,54.239 C87.881,54.239 87.881,54.145 87.881,53.957 z M88.318,55.707 C88.318,55.395 88.053,55.129 87.74,55.129 C87.428,55.129 87.162,55.395 87.162,55.707 C87.162,56.02 87.428,56.286 87.74,56.286 C88.053,56.286 88.318,56.02 88.318,55.707 z M88.318,55.707" fill="#000000"/>
      </g>
    </g>
    <g>
      <path d="M40.313,68.991 L41.469,67.866 C43.172,66.366 43.813,65.772 43.813,64.694 C43.813,63.444 42.844,62.569 41.5,62.569 C40.281,62.569 39.469,63.569 39.469,64.538 C39.469,65.163 40.016,65.163 40.047,65.163 C40.235,65.163 40.61,65.022 40.61,64.585 C40.61,64.288 40.422,64.006 40.031,64.006 C39.953,64.006 39.922,64.006 39.891,64.022 C40.141,63.319 40.735,62.913 41.36,62.913 C42.36,62.913 42.828,63.788 42.828,64.694 C42.828,65.553 42.281,66.428 41.688,67.1 L39.594,69.428 C39.469,69.553 39.469,69.569 39.469,69.835 L43.516,69.835 L43.813,67.944 L43.547,67.944 C43.485,68.256 43.422,68.741 43.313,68.913 C43.235,68.991 42.516,68.991 42.266,68.991 z M40.313,68.991" fill="#000000"/>
      <path d="M55.727,68.991 L56.884,67.866 C58.587,66.366 59.227,65.772 59.227,64.694 C59.227,63.444 58.259,62.569 56.915,62.569 C55.696,62.569 54.884,63.569 54.884,64.538 C54.884,65.163 55.43,65.163 55.462,65.163 C55.649,65.163 56.024,65.022 56.024,64.585 C56.024,64.288 55.837,64.006 55.446,64.006 C55.368,64.006 55.337,64.006 55.305,64.022 C55.555,63.319 56.149,62.913 56.774,62.913 C57.774,62.913 58.243,63.788 58.243,64.694 C58.243,65.553 57.696,66.428 57.102,67.1 L55.009,69.428 C54.884,69.553 54.884,69.569 54.884,69.835 L58.93,69.835 L59.227,67.944 L58.962,67.944 C58.899,68.256 58.837,68.741 58.727,68.913 C58.649,68.991 57.93,68.991 57.68,68.991 z M55.727,68.991" fill="#000000"/>
    </g>
    <path d="M72.466,67.116 C72.466,65.741 73.529,64.975 73.904,64.694 C74.201,64.475 74.435,64.069 74.435,63.616 C74.435,62.991 73.998,62.147 72.373,62.147 C71.185,62.147 70.513,62.881 70.513,63.6 C70.513,63.96 70.763,64.116 71.013,64.116 C71.326,64.116 71.513,63.897 71.513,63.616 C71.513,63.131 71.06,63.131 70.904,63.131 C71.248,62.553 71.873,62.381 72.341,62.381 C73.529,62.381 73.529,63.131 73.529,63.553 C73.529,64.194 73.357,64.397 73.154,64.585 C72.435,65.381 72.201,66.381 72.201,67.038 L72.201,67.538 C72.201,67.725 72.201,67.788 72.326,67.788 C72.466,67.788 72.466,67.694 72.466,67.506 z M72.904,69.256 C72.904,68.944 72.638,68.678 72.326,68.678 C72.013,68.678 71.748,68.944 71.748,69.256 C71.748,69.569 72.013,69.835 72.326,69.835 C72.638,69.835 72.904,69.569 72.904,69.256 z M72.904,69.256" fill="#000000"/>
  </g>
</svg>
